<?xml version="1.0" encoding="utf-8"?>
<!-- Generator: Adobe Illustrator 14.0.0, SVG Export Plug-In . SVG Version: 6.00 Build 43363)  -->
<!DOCTYPE svg PUBLIC "-//W3C//DTD SVG 1.1//EN" "http://www.w3.org/Graphics/SVG/1.1/DTD/svg11.dtd">
<svg version="1.1" id="レイヤー_1" xmlns="http://www.w3.org/2000/svg" xmlns:xlink="http://www.w3.org/1999/xlink" x="0px"
	 y="0px" width="16px" height="16px" viewBox="0 0 16 16" enable-background="new 0 0 16 16" xml:space="preserve">
<path d="M2.25,13.313c0-5.421,2.575-9.497,5.75-9.497c3.176,0,5.75,4.076,5.75,9.497v0.001H16c0-6.39-3.582-11.25-8-11.25
	c-4.418,0-8,4.859-8,11.25L2.25,13.313L2.25,13.313z"/>
<path fill="#FFFFFF" d="M7.847,6.62L7.071,6.847L3.213,0.881l1.81-0.728L7.847,6.62z M0.814,3.648l-1.152,1.296l6.281,3.681
	L6.727,8.4L0.814,3.648z M-0.833,8.286l-0.875,1.553l7.165,0.932l0.659-0.396L-0.833,8.286z M10.979,0.153l1.808,0.728L8.929,6.848
	L8.153,6.619L10.979,0.153z M9.273,8.4l0.784,0.225l6.28-3.682l-1.152-1.295L9.273,8.4z M9.883,10.375l0.658,0.396l7.166-0.932
	l-0.875-1.553L9.883,10.375z"/>
</svg>
