<?xml version="1.0" encoding="utf-8"?>
<!-- Generator: Adobe Illustrator 14.0.0, SVG Export Plug-In . SVG Version: 6.00 Build 43363)  -->
<!DOCTYPE svg PUBLIC "-//W3C//DTD SVG 1.1//EN" "http://www.w3.org/Graphics/SVG/1.1/DTD/svg11.dtd">
<svg version="1.1" id="レイヤー_1" xmlns="http://www.w3.org/2000/svg" xmlns:xlink="http://www.w3.org/1999/xlink" x="0px"
	 y="0px" width="16px" height="16px" viewBox="0 0 16 16" enable-background="new 0 0 16 16" xml:space="preserve">
<g>
	<path d="M0.67,8.738l2.083,0.626c0.21-0.778,0.477-1.499,0.798-2.141L1.774,6.182C1.33,6.951,0.958,7.809,0.67,8.738z"/>
	<path d="M4.639,3.086C3.865,3.58,3.16,4.239,2.544,5.039l1.554,1.25c0.453-0.682,0.971-1.243,1.54-1.655L4.639,3.086z"/>
	<path d="M11.36,3.086l-0.999,1.545c0.569,0.413,1.088,0.974,1.541,1.656l1.554-1.249C12.84,4.239,12.135,3.58,11.36,3.086z"/>
	<path d="M14.226,6.182l-1.776,1.042c0.321,0.642,0.589,1.362,0.798,2.14l2.083-0.625C15.042,7.809,14.67,6.951,14.226,6.182z"/>
	<path d="M13.484,10.388c0.173,0.914,0.267,1.895,0.267,2.925v0.001H16c0-1.125-0.116-2.198-0.323-3.211L13.484,10.388z"/>
	<path d="M0.323,10.103C0.117,11.115,0,12.188,0,13.313h2.25v-0.001c0-1.03,0.094-2.011,0.266-2.925L0.323,10.103z"/>
	<path d="M9.989,2.417C9.352,2.194,8.688,2.064,8,2.064c-0.688,0-1.352,0.13-1.988,0.354l0.712,1.632C7.135,3.9,7.562,3.815,8,3.815
		S8.865,3.9,9.276,4.049L9.989,2.417z"/>
</g>
</svg>
